# AST/ASF file generated using VICON BodyLanguage
# -----------------------------------------------
:version 1.10
:name VICON
:units
  mass 1.0
  length 0.45
  angle deg
:documentation
   .ast/.asf automatically generated from VICON data using
   VICON BodyBuilder and BodyLanguage model FoxedUp or BRILLIANT.MOD
:root
   order TX TY TZ RX RY RZ
   axis XYZ
   position 0 0 0  
   orientation 0 0 0 
:bonedata
  begin
     id 1 
     name lhipjoint
     direction 0.584852 -0.759097 0.285867 
     length 2.43633 
     axis 0 0 0  XYZ
  end
  begin
     id 2 
     name lfemur
     direction 0.34202 -0.939693 0  
     length 7.14704  
     axis 0 0 20  XYZ
    dof rx ry rz
    limits (-160.0 20.0)
           (-70.0 70.0)
           (-60.0 70.0)
  end
  begin
     id 3 
     name ltibia
     direction 0.342022 -0.939692 0   
     length 7.68483   
     axis 0 0 20   XYZ
    dof rx
    limits (-10.0 170.0)
  end
  begin
     id 4 
     name lfoot
     direction 0.0999605 -0.274639 0.956337   
     length 2.40452   
     axis -90 7.62852e-016 20   XYZ
    dof rx rz
    limits (-45.0 90.0)
           (-70.0 20.0)
  end
  begin
     id 5 
     name ltoes
     direction 1.53468e-011 -4.21881e-011 1   
     length 1.19837   
     axis -90 7.62852e-016 20   XYZ
    dof rx
    limits (-90.0 20.0)
  end
  begin
     id 6 
     name rhipjoint
     direction -0.569886 -0.769002 0.289597   
     length 2.40495  
     axis 0 0 0  XYZ 
  end
  begin
     id 7 
     name rfemur
     direction -0.34202 -0.939693 0   
     length 7.45086   
     axis 0 0 -20   XYZ
    dof rx ry rz
    limits (-160.0 20.0)
           (-70.0 70.0)
           (-70.0 60.0)
  end
  begin
     id 8 
     name rtibia
     direction -0.34202 -0.939693 0   
     length 7.76831   
     axis 0 0 -20   XYZ
    dof rx
    limits (-10.0 170.0)
 end
 begin
     id 9 
     name rfoot
     direction -0.0798572 -0.219406 0.97236   
     length 2.35911  
     axis -90 -7.62852e-016 -20   XYZ
    dof rx rz
    limits (-45.0 90.0)
           (-20.0 70.0)
  end
  begin
     id 10 
     name rtoes
     direction -1.53469e-011 -4.21728e-011 1   
     length 1.18261   
     axis -90 -7.62852e-016 -20   XYZ
    dof rx
    limits (-90.0 20.0)
  end
  begin
     id 11 
     name lowerback
     direction 0.0242088 0.999437 0.0232389   
     length 2.1561   
     axis 0 0 0   XYZ
    dof rx ry rz
    limits (-20.0 45.0)
           (-30.0 30.0)
           (-30.0 30.0)
  end
  begin
     id 12 
     name upperback
     direction -0.0356893 0.999013 -0.0264323   
     length 2.14431   
     axis 0 0 0   XYZ
    dof rx ry rz
    limits (-20.0 45.0)
           (-30.0 30.0)
           (-30.0 30.0)
  end
  begin
     id 13 
     name thorax
     direction -0.0472163 0.998194 -0.0371284   
     length 2.16169   
     axis 0 0 0   XYZ
    dof rx ry rz
    limits (-20.0 45.0)
           (-30.0 30.0)
           (-30.0 30.0)
  end
  begin
     id 14 
     name lowerneck
     direction 0.00863244 0.999921 0.00911972   
     length 1.58651   
     axis 0 0 0   XYZ
    dof rx ry rz
    limits (-20.0 45.0)
           (-30.0 30.0)
           (-30.0 30.0)
  end
  begin
     id 15 
     name upperneck
     direction 0.149523 0.979068 -0.138086   
     length 1.57486   
     axis 0 0 0   XYZ
    dof rx ry rz
    limits (-20.0 45.0)
           (-30.0 30.0)
           (-30.0 30.0)
  end
  begin
     id 16
     name head
     direction 0.0445219 0.997708 -0.0509576  
     length 1.6019  
     axis 0 0 0   XYZ
    dof rx ry rz
    limits (-20.0 45.0)
           (-30.0 30.0)
           (-30.0 30.0)
  end
  begin
     id 17 
     name lclavicle
     direction 0.911271 0.381667 -0.154644  
     length 3.80848  
     axis 0 0 0   XYZ
    dof ry rz
    limits (-20.0 10.0)
           (0.0 20.0)
  end
  begin
     id 18 
     name lhumerus
     direction 1 -4.49003e-011 2.1308e-027   
     length 5.19069   
     axis 180 -30 -90   XYZ
    dof rx ry rz
    limits (-60.0 90.0)
           (-90.0 90.0)
           (-90.0 90.0)
  end
  begin
     id 19
     name lradius
     direction 1 -4.48914e-011 4.01554e-027   
     length 3.30016   
     axis 180 -30 -90   XYZ
    dof rx
    limits (-10.0 170.0)
  end
  begin
     id 20
     name lwrist
     direction 1 -4.49003e-011 1.1934e-026   
     length 1.65008   
     axis -8.46377e-015 90 90   XYZ
    dof ry
    limits (-180.0 0.0)
 end
  begin
     id 21 
     name lhand
     direction 1 -4.49034e-011 2.38659e-026   
     length 0.707698   
     axis -1.52313e-014 90 90   XYZ
    dof rx rz
    limits (-90.0 90.0)
           (-45.0 45.0)
  end
  begin
     id 22 
     name lfingers
     direction 1 -4.48691e-011 4.77775e-026   
     length 0.570564   
     axis -3.04623e-014 90 90   XYZ
    dof rx
    limits (0.0 90.0)
  end
  begin
     id 23
     name lthumb
     direction 0.707107 -6.34832e-011 0.707107   
     length 0.819219   
     axis -90 45 -1.62303e-014   XYZ
    dof rx rz
    limits (-45.0 45.0)
           (-45.0 45.0)
  end
  begin
     id 24 
     name rclavicle
     direction -0.815579 0.573708 -0.0754329   
     length 3.54371  
     axis 0 0 0   XYZ 
    dof ry rz
    limits (-10.0 20.0)
           (-20.0 0.0)
  end
  begin
     id 25 
     name rhumerus
     direction -1 -4.48956e-011 3.05351e-028  
     length 5.23924   
     axis 180 30 90   XYZ
    dof rx ry rz
    limits (-90.0 60.0)
           (-90.0 90.0)
           (-90.0 90.0)
  end
  begin
     id 26 
     name rradius
     direction -1 -4.49013e-011 3.53849e-027   
     length 3.32953   
     axis 180 30 90   XYZ
    dof rx
    limits (-10.0 170.0)
  end
  begin
     id 27 
     name rwrist
     direction -1 -4.48901e-011 1.19374e-026   
     length 1.66477   
     axis -8.46377e-015 -90 -90   XYZ
    dof ry
    limits (-180.0 0.0)
  end
  begin
     id 28
     name rhand
     direction -1 -4.48877e-011 2.38764e-026   
     length 0.607414   
     axis -1.52313e-014 -90 -90   XYZ
    dof rx rz
    limits (-90.0 90.0)
           (-45.0 45.0)
  end
  begin
     id 29
     name rfingers
     direction -1 -4.48882e-011 4.77521e-026   
     length 0.489712   
     axis -3.04623e-014 -90 -90   XYZ
    dof rx
    limits (0.0 90.0)
  end
  begin
     id 30
     name rthumb
     direction -0.707107 -6.34974e-011 0.707107   
     length 0.703132   
     axis -90 -45 1.62303e-014   XYZ
    dof rx rz
    limits (-45.0 45.0)
           (-45.0 45.0)
  end
:hierarchy
  begin
    root lhipjoint rhipjoint lowerback
    lhipjoint lfemur
    lfemur ltibia
    ltibia lfoot
    lfoot ltoes
    rhipjoint rfemur
    rfemur rtibia
    rtibia rfoot
    rfoot rtoes
    lowerback upperback
    upperback thorax
    thorax lowerneck lclavicle rclavicle
    lowerneck upperneck
    upperneck head
    lclavicle lhumerus
    lhumerus lradius
    lradius lwrist
    lwrist lhand lthumb
    lhand lfingers
    rclavicle rhumerus
    rhumerus rradius
    rradius rwrist
    rwrist rhand rthumb
    rhand rfingers
  end

#!OML:ASF E:\VariousWalksJay\Project 1\Capture day 1\Session 1\Actor2.ASF
:FULLY-SPECIFIED
:DEGREES
616
root 7.56638 16.0827 15.2573 7.72507 11.732 -6.18466
lowerback 10.4786 -1.45033 4.85346
upperback 1.3125 -1.43922 -1.50572
thorax -4.66557 -0.809043 -4.10984
lowerneck -8.80278 -1.12719 -0.232348
upperneck 3.16148 -2.11727 11.4824
head 2.7737 -0.660155 3.7837
rclavicle 1.59028e-014 -1.27222e-014
rhumerus -30.4356 29.9278 -97.6619
rradius 95.539
rwrist 15.3154
rhand -52.3847 4.06593
rfingers 7.12502
rthumb -24.8763 -24.3355
lclavicle 1.59028e-014 -1.27222e-014
lhumerus -26.4456 -29.364 87.9068
lradius 68.487
lwrist -1.82775
lhand -39.0854 -42.3828
lfingers 7.12502
lthumb -12.086 -12.7519
rfemur -34.6807 -3.51116 29.0865
rtibia 62.1304
rfoot -27.7445 -12.4357
rtoes -9.35074
lfemur -34.2891 6.01694 -11.3151
ltibia 58.2829
lfoot -27.7634 10.2539
ltoes -12.4914
617
root 7.57849 16.1463 15.2979 7.76642 11.5716 -6.13766
lowerback 10.0763 -1.41389 4.80264
upperback 1.13012 -1.41683 -1.5504
thorax -4.63035 -0.80113 -4.1352
lowerneck -8.76941 -1.10458 -0.228563
upperneck 3.50588 -2.12086 11.4732
head 2.88505 -0.650048 3.78605
rclavicle 3.57812e-015 3.18055e-015
rhumerus -30.3646 29.9906 -97.4951
rradius 95.3957
rwrist 15.2475
rhand -52.3286 4.06608
rfingers 7.12502
rthumb -24.8225 -24.3427
lclavicle 3.57812e-015 3.18055e-015
lhumerus -26.4785 -29.4071 87.8754
lradius 68.3316
lwrist -1.47536
lhand -39.1147 -42.1833
lfingers 7.12502
lthumb -12.1143 -12.554
rfemur -34.0976 -3.46092 28.9998
rtibia 61.2281
rfoot -27.4045 -12.3579
rtoes -9.00947
lfemur -33.5732 5.94876 -11.3555
ltibia 57.2582
lfoot -27.4219 10.2968
ltoes -12.3649
618
root 7.58897 16.2044 15.3361 7.80137 11.4637 -6.09107
lowerback 9.70633 -1.38582 4.74613
upperback 0.967259 -1.40381 -1.58698
thorax -4.59281 -0.797057 -4.14701
lowerneck -8.73773 -1.09403 -0.166141
upperneck 3.98397 -2.16617 11.721
head 2.76344 -0.628338 3.4718
rclavicle 1.59028e-015 2.06736e-014
rhumerus -30.271 29.9285 -97.3064
rradius 95.2328
rwrist 15.23
rhand -52.2648 4.01938
rfingers 7.12502
rthumb -24.7613 -24.3979
lclavicle 1.59028e-015 2.06736e-014
lhumerus -26.423 -29.4011 87.8281
lradius 68.2372
lwrist -1.20586
lhand -39.1331 -41.9949
lfingers 7.12502
lthumb -12.1319 -12.3667
rfemur -33.5356 -3.4249 28.9291
rtibia 60.3663
rfoot -27.1206 -12.3307
rtoes -8.72397
lfemur -32.9304 5.87216 -11.3914
ltibia 56.3265
lfoot -27.0843 10.3101
ltoes -12.2577
619
root 7.59774 16.2567 15.3716 7.82387 11.4116 -6.04262
lowerback 9.37701 -1.37284 4.68119
upperback 0.830115 -1.40916 -1.6163
thorax -4.55223 -0.801068 -4.14347
lowerneck -8.69724 -1.09593 -0.176394
upperneck 4.17898 -2.18711 11.7281
head 2.81651 -0.631709 3.4753
rclavicle -1.19271e-014 -3.49861e-014
rhumerus -30.1503 29.7803 -97.0979
rradius 95.0626
rwrist 15.2212
rhand -52.1879 3.99589
rfingers 7.12502
rthumb -24.6876 -24.4315
lclavicle -1.19271e-014 -3.49861e-014
lhumerus -26.2895 -29.3811 87.7636
lradius 68.2043
lwrist -1.00648
lhand -39.1448 -41.8474
lfingers 7.12502
lthumb -12.1433 -12.2199
rfemur -32.994 -3.40953 28.8708
rtibia 59.551
rfoot -26.8931 -12.3458
rtoes -8.46563
lfemur -32.3522 5.78888 -11.4248
ltibia 55.4839
lfoot -26.76 10.2934
ltoes -12.1694
620
root 7.60485 16.3034 15.4043 7.8297 11.4088 -6.00123
lowerback 9.08664 -1.37502 4.61535
upperback 0.71721 -1.43234 -1.63859
thorax -4.50944 -0.813136 -4.12937
lowerneck -8.6403 -1.10209 -0.192092
upperneck 4.2872 -2.20455 11.7496
head 2.84098 -0.637059 3.48399
rclavicle 4.37326e-015 -1.11319e-014
rhumerus -30.0236 29.5823 -96.8888
rradius 94.8971
rwrist 15.1616
rhand -52.091 4.03615
rfingers 7.12502
rthumb -24.5947 -24.4039
lclavicle 4.37326e-015 -1.11319e-014
lhumerus -26.1073 -29.3779 87.6889
lradius 68.2385
lwrist -0.865439
lhand -39.1614 -41.748
lfingers 7.12502
lthumb -12.1593 -12.1214
rfemur -32.47 -3.4098 28.8313
rtibia 58.7826
rfoot -26.7227 -12.3946
rtoes -8.20712
lfemur -31.8273 5.70829 -11.4464
ltibia 54.7212
lfoot -26.4604 10.2447
ltoes -12.0983
621
root 7.61046 16.3443 15.4338 7.82052 11.4556 -5.96432
lowerback 8.84041 -1.39247 4.55092
upperback 0.634002 -1.47324 -1.65508
thorax -4.4618 -0.833106 -4.10742
lowerneck -8.6052 -1.11446 -0.216414
upperneck 4.32716 -2.22407 11.7869
head 2.84914 -0.645146 3.49858
rclavicle 6.04305e-014 -3.33958e-014
rhumerus -29.873 29.3532 -96.6678
rradius 94.7426
rwrist 15.0348
rhand -51.9813 4.1386
rfingers 7.12502
rthumb -24.4896 -24.3157
lclavicle 6.04305e-014 -3.33958e-014
lhumerus -25.8703 -29.4248 87.6021
lradius 68.3331
lwrist -0.760412
lhand -39.1735 -41.6846
lfingers 7.12502
lthumb -12.1709 -12.0587
rfemur -31.9665 -3.42961 28.8047
rtibia 58.0605
rfoot -26.6029 -12.4704
rtoes -7.95231
lfemur -31.3491 5.62835 -11.4604
ltibia 54.0265
lfoot -26.1948 10.1695
ltoes -12.0478
